Coordinates
version=1
nRows=7
nColumns=40
inDegrees=yes

Units are S.I. units (second, meters, Newtons, ...)
Angles are in degrees.

endheader
time	pelvis_tilt	pelvis_list	pelvis_rotation	pelvis_tx	pelvis_ty	pelvis_tz	hip_flexion_r	hip_adduction_r	hip_rotation_r	knee_angle_r	knee_angle_r_beta	ankle_angle_r	subtalar_angle_r	mtp_angle_r	hip_flexion_l	hip_adduction_l	hip_rotation_l	knee_angle_l	knee_angle_l_beta	ankle_angle_l	subtalar_angle_l	mtp_angle_l	lumbar_extension	lumbar_bending	lumbar_rotation	arm_flex_r	arm_add_r	arm_rot_r	elbow_flex_r	pro_sup_r	wrist_flex_r	wrist_dev_r	arm_flex_l	arm_add_l	arm_rot_l	elbow_flex_l	pro_sup_l	wrist_flex_l	wrist_dev_l
      0.00000000	     -2.25294517	      1.55389745	      7.75758100	     -1.04927969	      0.94597642	     -1.42534309	     27.08533771	     -8.69722857	    -24.14307564	    -13.38880556	     -0.23367874	     -3.33513187	      4.88311929	     -4.05731732	     -9.73311312	     -1.28468595	     19.82724078	    -11.13057338	     -0.19426515	      7.28368426	     -0.71909941	    -14.99251911	     -3.39108233	     -0.93347612	     -7.30388986	     -3.41639040	     -6.82992536	    -18.60682579	     15.16231828	     89.95437384	      0.00000000	      0.00000000	     12.73518036	     18.73180686	      6.63703744	     28.17024279	     89.95437384	      0.00000000	      0.00000000
      0.01000000	     -2.22042890	      1.51371417	      7.97716436	     -1.04069652	      0.94510657	     -1.42498602	     27.08734212	     -8.66972626	    -24.00914276	    -14.31767903	     -0.24989064	     -3.27232256	      4.21427087	     -3.98819692	    -10.14874717	     -0.98532294	     19.64764612	    -11.48552469	     -0.20046022	      7.31485573	     -0.69783888	    -14.77821498	     -3.37712417	     -0.89668364	     -7.45986008	     -3.47781478	     -6.66637439	    -18.56636060	     15.08757111	     89.95437384	      0.00000000	      0.00000000	     12.38457040	     18.53250192	      6.58957151	     27.91610575	     89.95437384	      0.00000000	      0.00000000
      0.02000000	     -1.84503666	      1.21806967	      8.18361392	     -1.03167003	      0.94489202	     -1.42429921	     26.56508501	     -8.18071629	    -23.91216324	    -15.04555042	     -0.26259439	     -3.39356431	      1.92655986	     -3.53892349	    -10.89420944	     -0.29739813	     19.37553641	    -11.89626466	     -0.20762899	      7.10721636	     -1.02623607	    -14.76679157	     -3.71143837	     -0.54452707	     -7.49045105	     -3.48070833	     -6.50414789	    -18.98303099	     14.94749127	     89.95437384	      0.00000000	      0.00000000	     12.06758427	     18.19119609	      6.80264119	     27.68422114	     89.95437384	      0.00000000	      0.00000000
      0.03000000	     -1.76307521	      1.10195204	      8.32398794	     -1.02245745	      0.94412912	     -1.42353829	     26.42623032	     -8.02034844	    -23.94347008	    -16.10065031	     -0.28100936	     -3.34636389	      1.07342027	     -3.39632067	    -11.31904136	      0.13007426	     19.29340545	    -12.39146496	     -0.21627186	      7.10507381	     -0.92912392	    -14.56994963	     -3.68288857	     -0.43350443	     -7.47964547	     -3.59008555	     -6.38451580	    -18.85417861	     14.84764078	     89.95437384	      0.00000000	      0.00000000	     11.63102371	     17.89609564	      6.74249149	     27.37978250	     89.95437384	      0.00000000	      0.00000000
      0.04000000	     -1.60117010	      0.99253537	      8.47398077	     -1.01312237	      0.94359655	     -1.42257480	     26.10457783	     -7.80518272	    -23.90449100	    -17.09538331	     -0.29837073	     -3.22071313	      0.16595329	     -3.24479022	    -11.81912077	      0.61389994	     19.16724378	    -12.92366212	     -0.22556046	      6.93679175	     -0.92849354	    -14.36363625	     -3.73686937	     -0.33898104	     -7.51153285	     -3.65964496	     -6.21827982	    -18.77850807	     14.82073036	     89.95437384	      0.00000000	      0.00000000	     11.11964599	     17.63676301	      6.76920131	     27.13519867	     89.95437384	      0.00000000	      0.00000000
      0.05000000	     -1.77284607	      1.10242418	      8.57503356	     -1.00374375	      0.94262659	     -1.42155503	     25.92599853	     -7.77255109	    -23.45796869	    -17.65185312	     -0.30808296	     -3.29188434	      0.05443596	     -3.15128145	    -11.92136624	      0.76084245	     18.80562544	    -13.55609615	     -0.23659851	      6.69714138	     -0.87903201	    -14.05044392	     -3.45028133	     -0.55130807	     -7.35789732	     -3.99763395	     -6.01776111	    -18.69977335	     15.12072112	     89.95437384	      0.00000000	      0.00000000	     10.44755128	     17.35606822	      6.73645777	     27.18575824	     89.95437384	      0.00000000	      0.00000000
      0.06000000	     -0.53156074	      0.18183065	      8.87621145	     -0.99313126	      0.94386077	     -1.42002138	     23.82869943	     -6.24701123	    -23.54527372	    -17.48461410	     -0.30516408	     -3.69417048	     -2.29737259	     -2.02246858	    -13.57008521	      2.51373048	     19.49105582	    -13.99599280	     -0.24427616	      6.04456656	     -1.97768053	    -14.32427709	     -4.52366283	      0.62144468	     -7.49919326	     -3.81315266	     -5.95623575	    -18.90708735	     14.86593580	     89.95437384	      0.00000000	      0.00000000	      9.93067006	     16.89919628	      7.11639570	     26.84322356	     89.95437384	      0.00000000	      0.00000000
